<svg width="20" height="20" viewBox="0 0 20 20" fill="none" xmlns="http://www.w3.org/2000/svg">
  <path d="M9.97915 2.49251C9.38331 2.49917 8.80665 2.61918 8.36415 2.83084C7.59781 3.19834 3.33832 5.33085 3.33832 5.33085C4.77781 6.05085 8.53831 7.93085 9.01498 8.16919C9.53414 8.42835 10.4758 8.42919 10.995 8.16919L16.7233 5.3575C16.7241 5.3575 12.895 3.41584 11.6975 2.83084C11.1908 2.58334 10.5741 2.48584 9.97915 2.49251ZM2.50498 6.65918V12.4408C2.50507 13.4483 3.1879 14.5425 4.09348 14.9925L9.17165 17.4925V9.91418C8.94081 9.88252 8.51748 9.75586 8.26014 9.62752L2.97373 6.99751C2.66523 6.84418 2.50498 6.65918 2.50498 6.65918ZM17.505 6.65918C17.505 6.65918 17.345 6.84418 17.0366 6.99751L11.75 9.62752C11.4925 9.75586 11.0691 9.88252 10.8383 9.91418V17.4925L15.9166 14.9925C16.8216 14.5425 17.505 13.4483 17.505 12.4408V6.65918Z" fill="#322C27" />
</svg>