<svg width="24" height="24" viewBox="0 0 24 24" fill="none" xmlns="http://www.w3.org/2000/svg">
  <path opacity="0.2" d="M21 11.9437C21.0087 13.1362 20.7794 14.3184 20.3254 15.4212C19.8714 16.5239 19.202 17.5249 18.3562 18.3656C14.8969 21.825 9.23436 21.8625 5.72811 18.45C4.44176 17.1983 3.55905 15.5905 3.19342 13.8332C2.82779 12.076 2.99593 10.2496 3.67623 8.58861C4.35654 6.92766 5.51793 5.50805 7.0112 4.5122C8.50447 3.51634 10.2614 2.98972 12.0562 3C12.1685 3.00165 12.2791 3.0282 12.3799 3.07772C12.4807 3.12724 12.5693 3.19851 12.6392 3.28639C12.7091 3.37427 12.7587 3.47657 12.7844 3.58591C12.81 3.69526 12.8111 3.80893 12.7875 3.91874C12.6898 4.3543 12.6905 4.80617 12.7897 5.24141C12.8888 5.67664 13.0838 6.08427 13.3604 6.43458C13.6371 6.78489 13.9884 7.06905 14.3888 7.26634C14.7893 7.46363 15.2286 7.56908 15.675 7.575C15.8739 7.575 16.0647 7.65401 16.2053 7.79466C16.346 7.93532 16.425 8.12608 16.425 8.325C16.4309 8.77133 16.5364 9.21073 16.7336 9.61114C16.9309 10.0116 17.2151 10.3629 17.5654 10.6396C17.9157 10.9162 18.3233 11.1112 18.7586 11.2103C19.1938 11.3094 19.6457 11.3102 20.0812 11.2125C20.191 11.1889 20.3047 11.19 20.4141 11.2156C20.5234 11.2413 20.6257 11.2908 20.7136 11.3608C20.8015 11.4307 20.8727 11.5193 20.9223 11.6201C20.9718 11.7209 20.9983 11.8314 21 11.9437V11.9437Z" fill="#F2F3F4" />
  <path d="M21 11.9437C21.0087 13.1362 20.7794 14.3184 20.3254 15.4212C19.8714 16.5239 19.202 17.5249 18.3562 18.3656C14.8969 21.825 9.23436 21.8625 5.72811 18.45C4.44176 17.1983 3.55905 15.5905 3.19342 13.8332C2.82779 12.076 2.99593 10.2496 3.67623 8.58861C4.35654 6.92766 5.51793 5.50805 7.0112 4.5122C8.50447 3.51634 10.2614 2.98972 12.0562 3C12.1685 3.00165 12.2791 3.0282 12.3799 3.07772C12.4807 3.12724 12.5693 3.19851 12.6392 3.28639C12.7091 3.37427 12.7587 3.47657 12.7844 3.58591C12.81 3.69526 12.8111 3.80893 12.7875 3.91874C12.6898 4.3543 12.6905 4.80617 12.7897 5.24141C12.8888 5.67664 13.0838 6.08427 13.3604 6.43458C13.6371 6.78489 13.9884 7.06905 14.3888 7.26634C14.7893 7.46363 15.2286 7.56908 15.675 7.575C15.8739 7.575 16.0647 7.65401 16.2053 7.79466C16.346 7.93532 16.425 8.12608 16.425 8.325C16.4309 8.77133 16.5364 9.21073 16.7336 9.61114C16.9309 10.0116 17.2151 10.3629 17.5654 10.6396C17.9157 10.9162 18.3233 11.1112 18.7586 11.2103C19.1938 11.3094 19.6457 11.3102 20.0812 11.2125C20.191 11.1889 20.3047 11.19 20.4141 11.2156C20.5234 11.2413 20.6257 11.2908 20.7136 11.3608C20.8015 11.4307 20.8727 11.5193 20.9223 11.6201C20.9718 11.7209 20.9983 11.8314 21 11.9437V11.9437Z" stroke="#F2F3F4" stroke-width="2" stroke-linecap="round" stroke-linejoin="round" />
  <path d="M14.625 17.25C15.2463 17.25 15.75 16.7463 15.75 16.125C15.75 15.5037 15.2463 15 14.625 15C14.0037 15 13.5 15.5037 13.5 16.125C13.5 16.7463 14.0037 17.25 14.625 17.25Z" fill="#F2F3F4" />
  <path d="M8.625 16.5C9.24632 16.5 9.75 15.9963 9.75 15.375C9.75 14.7537 9.24632 14.25 8.625 14.25C8.00368 14.25 7.5 14.7537 7.5 15.375C7.5 15.9963 8.00368 16.5 8.625 16.5Z" fill="#F2F3F4" />
  <path d="M7.875 11.25C8.49632 11.25 9 10.7463 9 10.125C9 9.50368 8.49632 9 7.875 9C7.25368 9 6.75 9.50368 6.75 10.125C6.75 10.7463 7.25368 11.25 7.875 11.25Z" fill="#F2F3F4" />
  <path d="M12.75 12.75C13.3713 12.75 13.875 12.2463 13.875 11.625C13.875 11.0037 13.3713 10.5 12.75 10.5C12.1287 10.5 11.625 11.0037 11.625 11.625C11.625 12.2463 12.1287 12.75 12.75 12.75Z" fill="#F2F3F4" />
</svg>