<svg width="20" height="20" viewBox="0 0 20 20" fill="none" xmlns="http://www.w3.org/2000/svg">
  <path d="M10.0118 1.66569C7.37319 1.68652 4.94228 3.48235 4.30861 6.30151C2.69119 6.98151 1.67844 8.49402 1.67844 10.3115C1.67844 12.2965 2.93953 14.1332 4.75136 14.7648C5.18594 14.9165 5.66752 14.7048 5.81911 14.2698C5.97061 13.8357 5.73277 13.354 5.29827 13.2023C4.16686 12.8073 3.34511 11.599 3.34511 10.3115C3.34511 9.06735 4.12302 8.03318 5.29827 7.68151C5.60961 7.58818 5.82528 7.32569 5.87111 7.00402C6.19278 4.74903 8.00536 3.34819 10.0118 3.33236C12.2458 3.31486 14.1959 5.23819 14.1784 7.49902C14.178 7.54902 14.1784 8.21818 14.1784 8.41068C14.1784 8.79901 14.4254 9.13068 14.8034 9.21818C15.9 9.47151 16.6784 10.3324 16.6784 11.249C16.6784 12.1782 15.9298 13.0082 14.8294 13.254C14.3804 13.3549 14.104 13.8207 14.2044 14.2698C14.3049 14.719 14.7449 14.9957 15.1941 14.8948C17.0203 14.4865 18.3451 13.0007 18.3451 11.249C18.3451 9.73735 17.3575 8.41152 15.8451 7.81152C15.8466 7.66319 15.8449 7.52069 15.8451 7.49902C15.8699 4.30236 13.1713 1.64152 10.0118 1.66569ZM10.0118 9.16569C9.55336 9.16569 9.17844 9.53985 9.17844 9.99902V15.8323H7.51178L10.0118 18.3323L12.5118 15.8323H10.8451V9.99902C10.8451 9.53985 10.4703 9.16569 10.0118 9.16569Z" fill="#322C27" />
</svg>