<svg width="20" height="20" viewBox="0 0 20 20" fill="none" xmlns="http://www.w3.org/2000/svg">
  <path d="M9.99818 1.67871C6.31626 1.67871 3.33151 4.6637 3.33151 8.34536C3.33151 11.2345 5.20468 14.522 7.73251 17.252C7.81418 17.3395 7.88026 17.4078 7.96693 17.4862C8.68193 18.127 9.42368 18.3537 9.99818 18.3453C10.0054 18.3453 10.0183 18.3453 10.0242 18.3453C10.6221 18.3453 11.4653 18.0762 12.2638 17.2778C14.6888 14.8528 16.6648 11.277 16.6648 8.34536C16.6648 4.6637 13.6801 1.67871 9.99818 1.67871ZM9.99818 3.34537C12.7596 3.34537 14.9982 5.5837 14.9982 8.34536C14.9982 10.7504 13.2084 13.937 11.0658 16.0795C10.6144 16.5312 10.2107 16.6787 9.99818 16.6787C9.98051 16.6787 9.96793 16.6787 9.97218 16.6787C9.78268 16.6812 9.45193 16.5895 9.08668 16.262C9.03835 16.2187 8.97718 16.1562 8.93051 16.1054C6.66318 13.6579 4.99818 10.7062 4.99818 8.34536C4.99818 5.5837 7.23676 3.34537 9.99818 3.34537ZM9.99818 5.84537C8.61743 5.84537 7.49818 6.96453 7.49818 8.34536C7.49818 9.72619 8.61743 10.8454 9.99818 10.8454C11.3789 10.8454 12.4982 9.72619 12.4982 8.34536C12.4982 6.96453 11.3789 5.84537 9.99818 5.84537ZM9.99818 7.51203C10.4584 7.51203 10.8315 7.88536 10.8315 8.34536C10.8315 8.80536 10.4584 9.17869 9.99818 9.17869C9.53793 9.17869 9.16484 8.80536 9.16484 8.34536C9.16484 7.88536 9.53793 7.51203 9.99818 7.51203Z" fill="#5B5046" />
</svg>